<svg height="496pt" viewBox="-1 0 496 496" width="496pt" xmlns="http://www.w3.org/2000/svg"><path d="m405.121094 128v-104h-257.136719c-3.578125-13.769531-16-24-30.863281-24-17.648438 0-32 14.351562-32 32 0 14.871094 10.238281 27.289062 24 30.863281v37.199219l-109.121094 83.9375 109.121094 83.9375v36.0625h-56v80h56v49.136719c-13.761719 3.574219-24 15.992187-24 30.863281 0 17.648438 14.351562 32 32 32 17.648437 0 32-14.351562 32-32 0-14.871094-10.242188-27.289062-24-30.863281v-49.136719h56v-80h-56v-36.0625l98.71875-75.9375h77.28125v48h192v-112zm-272 336c0 8.824219-7.175782 16-16 16-8.824219 0-16-7.175781-16-16s7.175781-16 16-16c8.824218 0 16 7.175781 16 16zm32-96h-96v-48h96zm-64-336c0-8.824219 7.175781-16 16-16 8.824218 0 16 7.175781 16 16s-7.175782 16-16 16c-8.824219 0-16-7.175781-16-16zm16 221.902344-90.882813-69.902344 90.882813-69.902344 90.878906 69.902344zm106.71875-77.902344-98.71875-75.9375v-37.199219c11.191406-2.910156 19.949218-11.671875 22.863281-22.863281h241.136719v88h-88v48zm253.28125 48h-160v-80h160zm0 0"/><path d="m333.121094 160h128v16h-128zm0 0"/><path d="m333.121094 192h112v16h-112zm0 0"/><path d="m213.121094 440h256v-144h-256zm16-128h224v112h-224zm0 0"/><path d="m245.121094 328h16v16h-16zm0 0"/><path d="m277.121094 328h160v16h-160zm0 0"/><path d="m277.121094 360h160v16h-160zm0 0"/><path d="m245.121094 360h16v16h-16zm0 0"/><path d="m245.121094 392h16v16h-16zm0 0"/><path d="m277.121094 392h160v16h-160zm0 0"/></svg>