<?xml version="1.0" encoding="UTF-8" standalone="no"?>
<!-- Created with Inkscape (http://www.inkscape.org/) -->

<svg
   xmlns:dc="http://purl.org/dc/elements/1.1/"
   xmlns:cc="http://creativecommons.org/ns#"
   xmlns:rdf="http://www.w3.org/1999/02/22-rdf-syntax-ns#"
   xmlns:svg="http://www.w3.org/2000/svg"
   xmlns="http://www.w3.org/2000/svg"
   xmlns:sodipodi="http://sodipodi.sourceforge.net/DTD/sodipodi-0.dtd"
   xmlns:inkscape="http://www.inkscape.org/namespaces/inkscape"
   width="210mm"
   height="297mm"
   viewBox="0 0 210 297"
   version="1.1"
   id="svg8"
   inkscape:version="0.92.2 (5c3e80d, 2017-08-06)"
   sodipodi:docname="icon.svg">
  <sodipodi:namedview
     id="base"
     pagecolor="#ffffff"
     bordercolor="#666666"
     borderopacity="1.0"
     inkscape:pageopacity="0.0"
     inkscape:pageshadow="2"
     inkscape:zoom="0.70710678"
     inkscape:cx="443.91881"
     inkscape:cy="1026.1499"
     inkscape:document-units="px"
     inkscape:current-layer="layer1"
     showgrid="false"
     showborder="false"
     inkscape:object-nodes="true"
     inkscape:object-paths="false"
     inkscape:snap-intersection-paths="false"
     inkscape:window-width="3840"
     inkscape:window-height="2111"
     inkscape:window-x="0"
     inkscape:window-y="25"
     inkscape:window-maximized="1"
     inkscape:snap-smooth-nodes="false"
     inkscape:snap-midpoints="false"
     inkscape:snap-object-midpoints="false" />
  <defs
     id="defs2" />
  <metadata
     id="metadata5">
    <rdf:RDF>
      <cc:Work
         rdf:about="">
        <dc:format>image/svg+xml</dc:format>
        <dc:type
           rdf:resource="http://purl.org/dc/dcmitype/StillImage" />
        <dc:title></dc:title>
      </cc:Work>
    </rdf:RDF>
  </metadata>
  <g
     style="display:inline"
     inkscape:label="Layer 1"
     inkscape:groupmode="layer"
     id="layer1">
    <path
       style="display:inline;opacity:1;fill:#ffffff;fill-opacity:1;stroke:none;stroke-width:0.01802284;stroke-miterlimit:4;stroke-dasharray:none;stroke-opacity:0.95705519"
       d="M -78.171521,-12.125974 42.172511,57.346839 V 77.197174 97.04941 L 24.980176,87.124527 V 67.272296 L -9.400882,47.424624 v 99.254706 l 17.1923305,9.92487 v 19.85223 l -17.1923305,-9.92487 -17.192337,-9.92488 -17.192334,-9.92488 v -19.85223 l 17.192334,9.92488 V 37.499745 L -60.979196,17.649234 V 37.501465 L -78.171521,27.576592 V 7.724361 Z"
       id="path5024"
       inkscape:connector-curvature="0" />
    <path
       inkscape:connector-curvature="0"
       id="path4589"
       d="m -71.674568,0.9847552 99.6788,57.5493288 V 89.088388 L 18.758009,83.750105 V 63.525238 L -14.242741,44.47233 v 110.06493 l 14.35795731,8.28954 v 9.20101 L -43.785553,146.6818 v -9.20101 l 14.357957,8.28954 V 35.705387 L -62.428344,16.65248 v 20.224867 l -9.246224,-5.338285 z"
       style="display:inline;opacity:0.2;fill:#ffffff;fill-opacity:1;stroke-width:0.27572313" />
    <path
       style="opacity:1;fill:#808080;stroke-width:0.26458332"
       d="M 179.33272,-21.585245 41.804166,57.816625 V 216.62089 L 179.33272,137.2185 Z"
       id="path27"
       inkscape:connector-curvature="0" />
    <path
       inkscape:connector-curvature="0"
       style="opacity:1;fill:#cccccc;stroke-width:0.26458332"
       d="M 41.804166,-100.98712 -95.724389,-21.585245 41.804166,57.816625 179.33272,-21.585245 Z"
       id="path4527" />
    <text
       xml:space="preserve"
       style="font-style:normal;font-variant:normal;font-weight:normal;font-stretch:normal;font-size:10.58333302px;line-height:1.25;font-family:'DejaVu Serif';-inkscape-font-specification:'DejaVu Serif';letter-spacing:0px;word-spacing:0px;fill:#ffffff;fill-opacity:1;stroke:none;stroke-width:0.26458332"
       x="-35.921021"
       y="47.79789"
       id="text4580"><tspan
         sodipodi:role="line"
         id="tspan4578"
         x="-35.921021"
         y="57.161659"
         style="font-style:normal;font-variant:normal;font-weight:normal;font-stretch:normal;font-family:'DejaVu Serif';-inkscape-font-specification:'DejaVu Serif';fill:#ffffff;stroke-width:0.26458332" /></text>
    <g
       id="g5204"
       style="display:inline;stroke:none;fill:#808080;fill-opacity:1">
      <path
         id="path5052"
         d="m 33.210401,102.47538 8.96211,-5.42597 -17.192335,-9.924883 -8.96211,5.42597 17.192335,9.924883"
         inkscape:connector-curvature="0"
         style="fill:#808080;fill-opacity:1;stroke:none;stroke-width:0.5291667;stroke-opacity:0.6" />
      <path
         id="path5054"
         d="m 16.018066,92.550497 8.96211,-5.42597 V 67.272296 l -8.96211,5.42597 v 19.852231"
         inkscape:connector-curvature="0"
         style="fill:#808080;fill-opacity:1;stroke:none;stroke-width:0.5291667;stroke-opacity:0.6" />
      <path
         id="path5056"
         d="m 16.018066,72.698266 8.96211,-5.42597 -34.381058,-19.847672 -8.96211,5.42597 34.381058,19.847672"
         inkscape:connector-curvature="0"
         style="fill:#808080;fill-opacity:1;stroke:none;stroke-width:0.5291667;stroke-opacity:0.6" />
      <path
         id="path5064"
         transform="scale(0.26458333)"
         d="m -165.48828,554.38867 -33.87305,20.50586 64.97852,37.51172 64.978513,37.51172 64.9804689,37.51172 33.8710941,-20.50781 -64.978516,-37.51172 -64.97852,-37.51172 z"
         style="fill:#808080;fill-opacity:1;stroke:none;stroke-width:2;stroke-opacity:0.6"
         inkscape:connector-curvature="0" />
      <path
         id="path5070"
         d="m -52.747663,152.10777 8.96211,-5.42597 v -19.85223 l -8.96211,5.42597 v 19.85223"
         inkscape:connector-curvature="0"
         style="fill:#808080;fill-opacity:1;stroke:none;stroke-width:0.5291667;stroke-opacity:0.6" />
      <path
         id="path5074"
         d="m -35.555329,142.18042 8.96211,-5.42597 V 37.499745 l -8.96211,5.42597 v 99.254705"
         inkscape:connector-curvature="0"
         style="fill:#808080;fill-opacity:1;stroke:none;stroke-width:0.5291667;stroke-opacity:0.6" />
      <path
         id="path5076"
         d="m -35.555329,42.925715 8.96211,-5.42597 -34.385977,-19.850511 -8.96211,5.42597 34.385977,19.850511"
         inkscape:connector-curvature="0"
         style="fill:#808080;fill-opacity:1;stroke:none;stroke-width:0.5291667;stroke-opacity:0.6" />
      <path
         id="path5080"
         d="m -69.941306,42.927435 8.96211,-5.42597 -17.192325,-9.924873 -8.96211,5.42597 17.192325,9.924873"
         inkscape:connector-curvature="0"
         style="fill:#808080;fill-opacity:1;stroke:none;stroke-width:0.5291667;stroke-opacity:0.6" />
      <path
         id="path5082"
         transform="scale(0.26458333)"
         d="m -295.45117,-45.830078 -33.87305,20.507812 v 75.023438 75.033208 l 33.87305,-20.50782 V 29.195312 Z"
         style="fill:#808080;fill-opacity:1;stroke:none;stroke-width:2;stroke-opacity:0.6"
         inkscape:connector-curvature="0" />
      <path
         id="path5086"
         d="m -87.133631,-6.7000036 8.96211,-5.4259704 v 0 l -8.96211,5.4259704 v 0"
         inkscape:connector-curvature="0"
         style="fill:#808080;fill-opacity:1;stroke:none;stroke-width:0.5291667;stroke-opacity:0.6" />
    </g>
    <path
       inkscape:connector-curvature="0"
       id="rect4976"
       d="M -95.724389,-21.585245 V 137.2235 L 41.806402,216.61797 V 57.809227 Z M -87.133631,-6.7000036 33.210401,62.772809 V 82.623144 102.47538 L 16.018066,92.550497 V 72.698266 L -18.362992,52.850594 V 152.1053 l 17.1923305,9.92487 v 19.85223 l -17.1923305,-9.92487 -17.192337,-9.92488 -17.192334,-9.92488 v -19.85223 l 17.192334,9.92488 V 42.925715 L -69.941306,23.075204 V 42.927435 L -87.133631,33.002562 V 13.150331 Z"
       style="display:inline;opacity:1;fill:#333333;fill-opacity:1;stroke:#000000;stroke-width:0.01802284;stroke-miterlimit:4;stroke-dasharray:none;stroke-opacity:0.95705519" />
  </g>
  <g
     style="display:none"
     inkscape:label="Layer 2"
     id="layer2"
     inkscape:groupmode="layer" />
</svg>
